<?xml version="1.0" encoding="UTF-8" standalone="no"?>
<svg
   xmlns:dc="http://purl.org/dc/elements/1.1/"
   xmlns:cc="http://creativecommons.org/ns#"
   xmlns:rdf="http://www.w3.org/1999/02/22-rdf-syntax-ns#"
   xmlns:svg="http://www.w3.org/2000/svg"
   xmlns="http://www.w3.org/2000/svg"
   viewBox="0 0 1658.7067 1027.7067"
   height="1027.7067"
   width="1658.7067"
   xml:space="preserve"
   id="svg2"
   version="1.1"><metadata
     id="metadata8"><rdf:RDF><cc:Work
         rdf:about=""><dc:format>image/svg+xml</dc:format><dc:type
           rdf:resource="http://purl.org/dc/dcmitype/StillImage" /></cc:Work></rdf:RDF></metadata><defs
     id="defs6" /><g
     transform="matrix(1.3333333,0,0,-1.3333333,0,1027.7067)"
     id="g10"><g
       transform="scale(0.1)"
       id="g12"><path
         id="path14" 
         style="fill:#e9e9e9;fill-opacity:1;fill-rule:nonzero;stroke:none"
         d="m 11506.1,4648 c 0,0 -225.4,-85.32 -225.4,-91.48 0,0 -31.7,-90 -51,-147.13 -29.5,3.19 -60.9,6.78 -94.2,10.86 -228.2,27.94 -405.3,201.65 -438.4,209.34 -33.2,7.69 -107.4,-34.13 -156.8,-48.09 -49.5,-13.98 -311.3,5.47 -448.1,20.36 -136.73,14.87 -399.66,-60.49 -455.56,-62.35 -55.88,-1.86 -132.79,97.93 -191.48,107.95 -58.68,10.03 -352.29,-44.01 -373.34,-51.34 -21.06,-7.31 -92.68,6.22 -196.66,18.09 -104.01,11.87 -153.93,90.57 -183.07,93.25 -29.12,2.67 -119.92,-35.28 -189.59,-45.08 -69.66,-9.8 -128.64,134.53 -151.21,166.7 -16.5,23.52 -63.77,22.66 -102.22,21.79 -14.16,-0.32 -27.13,-0.63 -36.92,0.27 -11.66,1.07 -23.25,-0.95 -34.5,-2.98 -23.86,-4.29 -46.19,-8.58 -64.25,16.68 -26.58,37.18 -301.95,2.3 -301.95,2.3 0,0 -12.86,24.34 -22.1,48.35 -9.24,24.01 -197.49,6.59 -225.78,20.76 -28.29,14.18 -19.41,124.5 -58.25,135.01 -38.86,10.53 -58.72,-10.81 -123.95,-30.27 -65.2,-19.47 -153.4,-2.1 -202.56,67.24 -49.18,69.34 -154.11,28.48 -154.11,28.48 l 877.95,1169.17 v 261.83 l -289.99,-235.17 -2139.39,196.74 -1948.03,-2670.75 -2594.685,238.6 19.843,40.48 -401.421,148.16 v -261.83 c 0,0 114.007,-35.24 160.402,-70.44 46.398,-35.2 255.355,-137.95 219.269,-255.29 -36.093,-117.34 128.842,-126.32 210.152,-232.79 81.31,-106.49 305.49,-188.97 330.57,-287.19 12.61,-49.32 -26.47,-129.04 -63.56,-218.56 l -57.68,35.79 c 0,0 -10.39,-249.04 2.4,-293.6 l 0.01,-0.03 c 0.81,-5.78 1.82,-11.53 3.07,-17.21 38.88,-176.84 624.06,-506 793.33,-509.18 169.27,-3.19 450.08,190.64 599.22,313.05 149.15,122.4 270.8,111.22 270.8,111.22 l 1005.02,-123.36 c 0,0 232.49,-182.26 188.56,-379.3 -43.92,-197.07 170.57,-424.07 297.24,-553.28 126.67,-129.21 207.51,-374.86 225.14,-441.45 13.84,-52.29 29.7,-93.37 -10.55,-197.25 -34.38,26.539 -69.39,52.25 -69.39,52.25 V 726.809 c -0.75,-9.879 -0.74,-19.668 0,-29.368 v -1.929 l 0.18,-0.141 c 12.04,-138.031 166.74,-256.562 229.85,-321.5 79.22,-81.543 299.95,-64.711 326.45,-64.062 26.51,0.671 69.06,-46.559 127.88,-86 58.82,-39.45 190.2,-51.52 551.86,-103.34 361.66,-51.8206 335.49,-114.37916 393.87,-119.738531 23.96,-2.218749 48.66,0.339841 67.42,11.621131 l 0.55,0.1484 c 3.17,1.2891 6.04,3.5586 8.7,6.5703 15.66,13.8086 24.85,36.2305 21.51,71.1485 10.9,91.3832 -0.87,229.4022 -0.87,229.4022 l -40,-35.723 c -11.7,67.293 -18.62,121.633 -18.62,121.633 0,0 110.83,147.578 175.41,212.801 64.57,65.227 61.35,74.797 6.89,120.039 -54.5,45.231 10.61,104.211 10.61,104.211 0,0 88.65,-20.543 189.79,-17.441 101.14,3.058 41.91,76.57 89.18,146.468 47.3,69.901 64.59,65.211 159.41,115.291 94.79,50.04 123.24,143.34 215.78,162.66 92.56,19.35 130.02,62.31 235.17,133.07 105.18,70.77 298.16,43.74 377.24,79.78 79.09,36.05 -34.82,99.11 11.86,147.42 30.2,31.25 247.06,18.14 441.5,5.03 106.07,-7.15 205.47,-14.3 264.27,-14.26 166.58,0.16 472.8,33.86 594.13,84.59 121.34,50.72 288.56,245.73 377.66,364.36 89.09,118.64 85.36,134.48 149.75,144.01 64.39,9.55 87.39,-63.71 106.76,-93.35 19.37,-29.63 197.25,-49.07 411.03,-6.86 213.8,42.22 263.1,87.19 309.8,135.49 46.7,48.3 87.8,47.61 227.1,143.09 139.3,95.45 142.9,197.22 197.2,269.56 54.4,72.36 150.2,109.96 214.9,203.01 34.6,49.71 59.2,92.31 70,130.68 v 0 0.02 c 7.2,25.76 8.1,49.6 1.4,72.32 l 4.5,228.47 h -12.8 l -58.3,-21.98 c -2.1,13.75 -4.3,28.78 -6.5,45.42 -19,140.96 -73.5,186.2 -73.5,186.2 l 494.1,900.53 V 4648" /><path
         id="path16"
         style="fill:#f89a17;fill-opacity:1;fill-rule:nonzero;stroke:none"
         d="m 11494.1,4786.81 c 0,0 -225.4,-85.32 -225.4,-91.48 0,0 -31.7,-90 -51.1,-147.13 -29.4,3.19 -60.8,6.79 -94.1,10.86 -228.2,27.94 -405.3,201.65 -438.5,209.35 -33.1,7.69 -107.3,-34.13 -156.8,-48.1 -49.4,-13.97 -311.2,5.47 -448,20.36 -136.75,14.87 -399.69,-60.49 -455.58,-62.35 -55.89,-1.85 -132.8,97.93 -191.48,107.96 -58.69,10.02 -352.3,-44.02 -373.36,-51.34 -21.05,-7.31 -92.67,6.21 -196.65,18.08 -104.01,11.88 -153.93,90.57 -183.06,93.25 -29.12,2.67 -119.93,-35.28 -189.59,-45.08 -69.67,-9.79 -128.65,134.53 -151.22,166.7 -16.5,23.52 -63.77,22.66 -102.23,21.8 -14.16,-0.32 -27.12,-0.64 -36.91,0.26 -11.65,1.07 -23.24,-0.95 -34.49,-2.97 -23.87,-4.3 -46.2,-8.59 -64.26,16.67 -26.59,37.18 -301.95,2.31 -301.95,2.31 0,0 -12.86,24.34 -22.1,48.35 -9.25,24 -197.48,6.58 -225.77,20.76 -28.29,14.17 -19.42,124.49 -58.25,135.01 -38.86,10.52 -58.73,-10.81 -123.95,-30.28 -65.21,-19.47 -153.4,-2.1 -202.57,67.24 -49.18,69.34 -154.12,28.48 -154.12,28.48 l 877.97,1169.17 v 261.83 l -290,-235.16 -2139.39,196.73 -1948.02,-2670.75 -2594.689,238.61 19.836,40.47 -401.414,148.16 v -261.83 c 0,0 114.004,-35.23 160.399,-70.44 46.398,-35.19 255.359,-137.95 219.269,-255.28 -36.094,-117.34 128.839,-126.33 210.149,-232.8 81.31,-106.47 305.49,-188.97 330.57,-287.18 12.61,-49.33 -26.47,-129.04 -63.56,-218.57 l -57.68,35.78 c 0,0 -10.39,-249.03 2.4,-293.59 l 0.01,-0.03 c 0.82,-5.78 1.82,-11.52 3.08,-17.21 38.88,-176.84 624.05,-505.99 793.32,-509.18 169.28,-3.19 450.08,190.65 599.23,313.04 149.15,122.42 270.79,111.23 270.79,111.23 l 1005.03,-123.35 c 0,0 232.49,-182.27 188.55,-379.31 -43.92,-197.06 170.57,-424.06 297.24,-553.28 126.67,-129.2 207.52,-374.86 225.14,-441.44 13.85,-52.3 29.7,-93.38 -10.55,-197.26 -34.37,26.54 -69.38,52.25 -69.38,52.25 V 865.621 c -0.76,-9.883 -0.75,-19.672 0,-29.371 v -1.922 l 0.17,-0.148 c 12.03,-138.02 166.75,-256.559 229.85,-321.5 79.23,-81.539 299.95,-64.7 326.45,-64.051 26.52,0.652 69.07,-46.559 127.89,-86 58.82,-39.449 190.2,-51.527 551.85,-103.359 361.67,-51.801 335.49,-114.372 393.87,-119.731 23.97,-2.219 48.66,0.352 67.42,11.621 l 0.55,0.16 c 3.17,1.289 6.04,3.559 8.7,6.571 15.67,13.8 24.85,36.23 21.52,71.148 10.89,91.383 -0.87,229.391 -0.87,229.391 l -40.01,-35.731 c -11.7,67.301 -18.61,121.641 -18.61,121.641 0,0 110.83,147.59 175.41,212.812 64.56,65.219 61.34,74.789 6.88,120.028 -54.49,45.242 10.61,104.218 10.61,104.218 0,0 88.65,-20.539 189.79,-17.449 101.15,3.071 41.92,76.561 89.18,146.481 47.3,69.9 64.6,65.2 159.4,115.28 94.81,50.05 123.25,143.34 215.8,162.67 92.55,19.34 130.02,62.3 235.16,133.07 105.19,70.76 298.16,43.74 377.25,79.78 79.08,36.03 -34.83,99.1 11.85,147.41 30.2,31.25 247.03,18.14 441.47,5.03 106.08,-7.15 205.49,-14.3 264.3,-14.25 166.59,0.15 472.81,33.86 594.14,84.58 121.32,50.73 288.55,245.73 377.64,364.37 89.1,118.64 85.36,134.47 149.76,144.01 64.39,9.55 87.39,-63.72 106.77,-93.36 19.36,-29.62 197.24,-49.07 411.05,-6.85 213.7,42.22 263.1,87.17 309.8,135.47 46.7,48.31 87.8,47.62 227.1,143.11 139.3,95.45 142.9,197.22 197.2,269.56 54.3,72.36 150.2,109.95 214.9,203.01 34.5,49.7 59.2,92.31 69.9,130.67 h 0.1 v 0.02 c 7.2,25.75 8.1,49.6 1.4,72.32 l 4.5,228.48 h -12.8 l -58.3,-21.99 c -2.1,13.75 -4.3,28.79 -6.6,45.42 -18.9,140.96 -73.4,186.19 -73.4,186.19 l 494.1,900.55 v 261.83" /><path
         id="path18"
         style="fill:#ef2f3e;fill-opacity:1;fill-rule:nonzero;stroke:none"
         d="M 5461.24,6929.93 7890.63,6706.52 7012.66,5537.36 c 0,0 104.94,40.86 154.12,-28.48 49.17,-69.34 137.36,-86.72 202.57,-67.25 65.22,19.47 85.09,40.81 123.95,30.28 38.83,-10.52 29.96,-120.84 58.25,-135.01 28.29,-14.18 216.52,3.24 225.77,-20.77 9.24,-24 22.1,-48.34 22.1,-48.34 0,0 275.36,34.87 301.95,-2.3 18.06,-25.27 40.39,-20.98 64.26,-16.68 11.25,2.02 22.84,4.04 34.49,2.97 9.79,-0.9 22.76,-0.58 36.92,-0.26 38.45,0.86 85.72,1.73 102.22,-21.8 22.57,-32.17 81.55,-176.5 151.22,-166.7 69.66,9.81 160.47,47.76 189.59,45.08 29.13,-2.68 79.05,-81.37 183.06,-93.25 103.98,-11.86 175.6,-25.39 196.65,-18.08 21.06,7.32 314.67,61.36 373.36,51.34 58.68,-10.03 135.59,-109.82 191.48,-107.96 55.89,1.87 318.83,77.22 455.58,62.34 136.8,-14.88 398.6,-34.32 448,-20.35 49.5,13.97 123.7,55.79 156.8,48.1 33.2,-7.7 210.3,-181.41 438.5,-209.34 228.2,-27.94 370.6,-34.09 370.6,-34.09 L 11000,3886.27 c 0,0 54.5,-45.23 73.4,-186.19 19,-140.97 33.5,-170.14 65.3,-231.84 31.7,-61.7 1.1,-130.05 -63.5,-223.11 -64.7,-93.03 -160.6,-130.64 -214.9,-202.99 -54.3,-72.34 -57.9,-174.11 -197.2,-269.56 -139.3,-95.48 -180.4,-94.8 -227.1,-143.1 -46.7,-48.3 -96.1,-93.26 -309.8,-135.48 -213.81,-42.21 -391.69,-22.76 -411.05,6.86 -19.38,29.64 -42.38,102.9 -106.77,93.35 -64.4,-9.53 -60.66,-25.36 -149.76,-144.02 -89.09,-118.63 -256.32,-313.64 -377.64,-364.35 -121.33,-50.73 -427.55,-84.44 -594.14,-84.59 -58.8,-0.05 -158.2,7.1 -264.27,14.26 -194.44,13.1 -411.3,26.21 -441.5,-5.03 -46.68,-48.31 67.23,-111.38 -11.85,-147.43 -79.09,-36.03 -272.06,-9.01 -377.25,-79.77 -105.14,-70.76 -142.61,-113.72 -235.16,-133.08 -92.55,-19.31 -120.99,-112.61 -215.8,-162.65 -94.8,-50.07 -112.1,-45.39 -159.4,-115.3 -47.26,-69.9 11.97,-143.4 -89.18,-146.47 -101.14,-3.1 -189.79,17.44 -189.79,17.44 0,0 -65.1,-58.97 -10.61,-104.2 54.46,-45.24 57.68,-54.82 -6.88,-120.05 -64.58,-65.2 -175.41,-212.798 -175.41,-212.798 0,0 21.07,-165.891 52.04,-277.031 31.02,-111.129 -32.32,-133.141 -90.74,-127.77 -58.38,5.371 -32.2,67.918 -393.87,119.731 -361.65,51.839 -493.03,63.91 -551.85,103.347 -58.82,39.449 -101.37,86.672 -127.89,86.012 -26.5,-0.652 -247.22,-17.481 -326.45,64.051 -79.23,81.527 -303.13,247.528 -207.33,430.538 95.81,183.02 74.87,231.33 57.24,297.93 -17.62,66.58 -98.47,312.22 -225.14,441.43 -126.67,129.21 -341.16,356.21 -297.24,553.28 43.94,197.05 -188.55,379.31 -188.55,379.31 l -1005.03,123.35 c 0,0 -121.64,11.18 -270.79,-111.22 -149.15,-122.4 -429.95,-316.24 -599.23,-313.05 -169.27,3.19 -754.44,332.35 -793.32,509.18 -38.9,176.81 140.85,395.41 115.75,493.62 -25.08,98.22 -249.26,180.71 -330.57,287.19 -81.31,106.47 -246.243,115.45 -210.149,232.79 36.09,117.33 -172.871,220.09 -219.269,255.28 -46.395,35.21 -160.399,70.44 -160.399,70.44 l 76.059,101.29 2900.208,-266.69 1948.02,2670.75" /><path
         id="path20"
         style="fill:#f8edd7;fill-opacity:1;fill-rule:nonzero;stroke:none"
         d="m 11123.5,4820.9 c -228.2,27.93 -405.3,201.64 -438.5,209.34 -33.1,7.69 -107.3,-34.13 -156.8,-48.1 -49.4,-13.97 -311.2,5.47 -448,20.35 -136.75,14.88 -399.69,-60.47 -455.58,-62.34 -55.89,-1.86 -132.8,97.93 -191.48,107.96 -58.69,10.02 -352.3,-44.02 -373.36,-51.34 -21.05,-7.31 -92.67,6.22 -196.65,18.08 -104.01,11.88 -153.93,90.57 -183.06,93.25 -29.12,2.68 -119.93,-35.27 -189.59,-45.08 -69.67,-9.8 -128.65,134.53 -151.22,166.7 -16.5,23.53 -63.77,22.66 -102.22,21.8 -14.16,-0.32 -27.13,-0.64 -36.92,0.26 -11.65,1.07 -23.24,-0.95 -34.49,-2.97 -23.87,-4.3 -46.2,-8.59 -64.26,16.68 -26.59,37.17 -301.95,2.3 -301.95,2.3 0,0 -12.86,24.34 -22.1,48.34 -9.25,24.01 -197.48,6.59 -225.77,20.77 -28.29,14.17 -19.42,124.49 -58.25,135.01 -38.86,10.53 -58.73,-10.81 -123.95,-30.28 -65.21,-19.47 -153.4,-2.09 -202.57,67.25 -49.18,69.34 -154.12,28.48 -154.12,28.48 -82.71,-47.54 -1978.29,-582.61 -2137.08,-997.99 0,0 1526.02,-342.08 2033.12,-971.59 507.09,-629.49 1162.34,-797.9 1380.76,-924.31 137.86,-79.79 490.09,-344.2 785.13,-560.16 2.13,0.84 4.35,1.67 6.39,2.53 121.32,50.71 288.55,245.72 377.64,364.35 89.1,118.66 85.36,134.49 149.76,144.02 64.39,9.55 87.39,-63.71 106.77,-93.35 19.36,-29.62 197.24,-49.07 411.05,-6.86 213.7,42.22 263.1,87.18 309.8,135.48 46.7,48.3 87.8,47.62 227.1,143.1 139.3,95.45 142.9,197.22 197.2,269.56 54.3,72.35 150.2,109.96 214.9,202.99 64.6,93.06 95.2,161.41 63.5,223.11 -31.8,61.7 -46.3,90.87 -65.3,231.84 -18.9,140.96 -73.4,186.19 -73.4,186.19 l 494.1,900.54 c 0,0 -142.4,6.15 -370.6,34.09" /><path
         id="path22"
         style="fill:#388eb1;fill-opacity:1;fill-rule:nonzero;stroke:none"
         d="M 7890.63,6706.52 5461.25,6929.93 3513.22,4259.18 613.012,4525.87 536.953,4424.58 c 0,0 114.004,-35.23 160.402,-70.44 46.395,-35.2 255.356,-137.95 219.266,-255.28 -36.094,-117.34 128.839,-126.32 210.149,-232.79 81.31,-106.48 305.49,-188.97 330.57,-287.19 25.1,-98.21 -154.65,-316.81 -115.75,-493.62 38.88,-176.83 624.05,-505.99 793.32,-509.18 169.28,-3.19 450.08,190.65 599.23,313.05 52.87,43.39 102.25,69.94 144.02,86.21 25.92,136.74 56.55,320.52 51.14,400.72 -9.15,135.56 133.74,529.5 544.88,534.41 411.15,4.9 883.76,17.61 883.76,17.61 0,0 390.04,305.11 451.58,504.28 61.53,199.18 468.9,268.86 822.99,384.87 354.09,116 722.39,71.21 780.97,247.34 58.56,176.13 599.19,472.79 599.19,472.79 l 877.96,1169.16" /><path
         id="path24"
         style="fill:#ed4621;fill-opacity:1;fill-rule:nonzero;stroke:none"
         d="m 2322.11,4240.93 298.07,-124.72 c 0.72,36.35 1.2,58.84 1.2,58.84 0,0 -277.55,165.77 -316.4,140.28 -38.85,-25.51 -179.13,-167.6 -175.48,-196.76 0.62,-4.95 5.71,-26.8 13.71,-59.78 l 178.9,182.14" /><path
         id="path26"
         style="fill:#ed4621;fill-opacity:1;fill-rule:nonzero;stroke:none"
         d="m 2727.04,3329.76 c -16.41,60.1 -112.95,149.39 -114.77,235 -1.35,62.93 4.2,363.02 7.24,517.66 l -289.61,123.54 -177.46,-184.92 c 44.63,-181.65 138.36,-553.02 135.55,-578.34 -3.64,-32.78 -69.23,-134.81 -132.99,-156.68 -63.75,-21.85 -111.12,-30.95 -114.77,-23.66 -3.64,7.29 -56.48,36.42 -72.87,30.96 -16.39,-5.47 -36.44,-67.4 -36.44,-83.8 0,-16.39 92.91,-98.38 92.91,-98.38 h 320.64 l 103.84,127.53 14.57,1.82 10.93,-111.13 h 171.24 c 0,0 98.38,140.29 81.99,200.4" /><path
         id="path28"
         style="fill:#ed4621;fill-opacity:1;fill-rule:nonzero;stroke:none"
         d="m 2190.37,4331.13 70.22,-29.39 c 14.22,12.8 26.42,22.8 34.74,28.27 5.69,3.74 12.71,5.55 21.44,5.55 31.37,0 95,-27.64 156.98,-58.93 0.13,5.61 0.19,8.67 0.19,8.67 0,0 -277.55,165.77 -316.4,140.26 -38.84,-25.49 -179.12,-167.59 -175.47,-196.74 0.78,-6.28 8.76,-39.74 20.75,-88.64 l 187.55,190.95" /><path
         id="path30"
         style="fill:#ed4621;fill-opacity:1;fill-rule:nonzero;stroke:none"
         d="m 2112.06,4116.4 c -1.05,8.43 -3.52,28.15 76.39,113.89 16.13,17.32 32.83,34.27 48.46,49.33 l -38.76,16.54 -186.01,-193.85 c 46.73,-189.38 131.09,-525.33 128.41,-549.35 -3.64,-32.8 -69.22,-134.82 -132.98,-156.67 -63.76,-21.87 -111.13,-30.98 -114.78,-23.69 -3.63,7.29 -56.47,36.44 -72.86,30.98 -16.39,-5.49 -36.44,-67.42 -36.44,-83.82 0,-16.38 92.91,-98.37 92.91,-98.37 h 38.41 c 5.02,26.71 22.55,80.46 46.99,88.61 3.15,1.05 6.67,1.58 10.47,1.58 19.6,0 61.18,-19.14 77.65,-34.11 13.77,0.24 49.47,8.07 99.38,25.19 54.87,18.81 117.59,113.49 121.18,141.61 -0.12,27.14 -68.69,304.09 -109.71,469.76 -31.07,125.48 -47.35,191.48 -48.71,202.37" /><path
         id="path32"
         style="fill:#fada27;fill-opacity:1;fill-rule:nonzero;stroke:none"
         d="m 2388.18,4049.92 35.78,-52.16 63.22,-0.1 -38.54,-50.13 19.46,-60.18 -59.6,21.17 -51.22,-37.1 1.71,63.23 -51.1,37.24 60.65,17.91 19.64,60.12" /><path
         id="path34"
         style="fill:#52c3a2;fill-opacity:1;fill-rule:nonzero;stroke:none"
         d="m 2612.09,3606.05 c 0,0 -157.6,-64.04 -341.61,-64.04 0,0 -12.09,-74.87 17.22,-92.94 0,0 263.8,7.63 333.68,69.49 0,0 38.2,37.69 -9.29,87.49" /><path
         id="path36"
         style="fill:#52c3a2;fill-opacity:1;fill-rule:nonzero;stroke:none"
         d="m 2245.94,3563.68 c 0,0 -70.68,-2.84 -110.25,22.75 0,0 -18.57,-23.71 -9.99,-71.48 0,0 51.96,-37.3 134.86,-16.05 l -14.62,64.78" /><path
         id="path38"
         style="fill:#ed1d2a;fill-opacity:1;fill-rule:nonzero;stroke:none"
         d="M 7161.44,2323.28 H 6118.88 c -27.66,0 -50.06,22.4 -50.06,50.06 0,27.64 22.4,50.04 50.06,50.04 h 1042.56 c 27.66,0 50.05,-22.4 50.05,-50.04 0,-27.66 -22.39,-50.06 -50.05,-50.06" /><path
         id="path40"
         style="fill:#b51e24;fill-opacity:1;fill-rule:nonzero;stroke:none"
         d="m 6105.39,2361.11 c 0,0 465.77,221.77 926.42,63.1 l -363.4,501.61 -563.02,-564.71" /><path
         id="path42"
         style="fill:#f89a17;fill-opacity:1;fill-rule:nonzero;stroke:none"
         d="m 6659.45,3140.79 h -28.14 v 240.57 h 28.14 v -240.57" /><path
         id="path44"
         style="fill:#ffffff;fill-opacity:1;fill-rule:nonzero;stroke:none"
         d="m 6105.39,2361.11 539.97,895.73 540,-895.73 h -427.47 l -112.53,419.72 -74.2,-419.72 h -465.77" /><path
         id="path46"
         style="fill:#52c3a2;fill-opacity:1;fill-rule:nonzero;stroke:none"
         d="m 6593.18,2485.66 -105.33,-124.55 h 83.31 z" /><path
         id="path48"
         style="fill:#52c3a2;fill-opacity:1;fill-rule:nonzero;stroke:none"
         d="m 6198.41,2361.11 -33.39,98.95 -59.63,-98.95 z" /><path
         id="path50"
         style="fill:#52c3a2;fill-opacity:1;fill-rule:nonzero;stroke:none"
         d="m 6421.56,2466.25 -82.46,-105.14 h 148.75 z" /><path
         id="path52"
         style="fill:#52c3a2;fill-opacity:1;fill-rule:nonzero;stroke:none"
         d="m 6277.65,2466.25 -79.24,-105.14 h 140.69 z" /><path
         id="path54"
         style="fill:#52c3a2;fill-opacity:1;fill-rule:nonzero;stroke:none"
         d="m 6966.46,2361.11 h 143.91 l -69.53,109.98 z" /><path
         id="path56"
         style="fill:#52c3a2;fill-opacity:1;fill-rule:nonzero;stroke:none"
         d="m 6724.51,2485.63 33.38,-124.52 h 55.03 z" /><path
         id="path58"
         style="fill:#52c3a2;fill-opacity:1;fill-rule:nonzero;stroke:none"
         d="m 7110.37,2361.11 h 74.99 l -48.77,80.87 z" /><path
         id="path60"
         style="fill:#52c3a2;fill-opacity:1;fill-rule:nonzero;stroke:none"
         id="path62"
         style="fill:#f5f014;fill-opacity:1;fill-rule:nonzero;stroke:none"
         d="m 6595.02,2496.17 5.45,30.71 H 6205.3 l -18.52,-30.71 h 408.24" /><path
         id="path64"
         style="fill:#f5f014;fill-opacity:1;fill-rule:nonzero;stroke:none"
         d="m 7085.44,2526.88 h -371.98 l 8.24,-30.71 h 382.25 l -18.51,30.71" /><path
         id="path66"
         style="fill:#7f321a;fill-opacity:1;fill-rule:nonzero;stroke:none"
         d="m 6508.47,3029.76 v -0.01 h 273.79 l -136.9,227.09 -136.89,-227.08" /><path
         id="path68"
         style="fill:#ed1d2a;fill-opacity:1;fill-rule:nonzero;stroke:none"
         d="M 6464.32,2066.68 H 5304.9 c -30.75,0 -55.66,24.92 -55.66,55.66 0,30.73 24.91,55.67 55.66,55.67 h 1159.42 c 30.73,0 55.65,-24.94 55.65,-55.67 0,-30.74 -24.92,-55.66 -55.65,-55.66" /><path
         id="path70"
         style="fill:#38997d;fill-opacity:1;fill-rule:nonzero;stroke:none"
         d="m 5289.89,2108.76 c 0,0 517.97,246.62 1030.26,70.16 l -404.14,557.82 -626.12,-627.98" /><path
         id="path72"
         style="fill:#f89a17;fill-opacity:1;fill-rule:nonzero;stroke:none"
         d="m 5906.05,2975.8 h -31.3 v 267.52 h 31.3 V 2975.8" /><path
         id="path74"
         style="fill:#52c3a2;fill-opacity:1;fill-rule:nonzero;stroke:none"
         d="m 5289.89,2108.76 600.51,996.09 600.51,-996.09 h -475.38 l -125.13,466.75 -82.54,-466.75 h -517.97" /><path
         id="path76"
         style="fill:#f14c33;fill-opacity:1;fill-rule:nonzero;stroke:none"
         d="m 5832.36,2247.24 -117.14,-138.48 h 92.64 z" /><path
         id="path78"
         style="fill:#f14c33;fill-opacity:1;fill-rule:nonzero;stroke:none"
         d="m 5393.36,2108.76 -37.14,110.03 -66.33,-110.03 z" /><path
         id="path80"
         style="fill:#f14c33;fill-opacity:1;fill-rule:nonzero;stroke:none"
         d="m 5641.51,2225.66 -91.71,-116.9 h 165.42 z" /><path
         id="path82"
         style="fill:#f14c33;fill-opacity:1;fill-rule:nonzero;stroke:none"
         d="m 5481.47,2225.66 -88.11,-116.9 h 156.44 z" /><path
         id="path84"
         style="fill:#f14c33;fill-opacity:1;fill-rule:nonzero;stroke:none"
         d="m 6247.47,2108.76 h 160.03 l -77.31,122.29 z" /><path
         id="path86"
         style="fill:#f14c33;fill-opacity:1;fill-rule:nonzero;stroke:none"
         d="m 5978.4,2247.23 37.13,-138.47 h 61.19 z" /><path
         id="path88"
         style="fill:#f14c33;fill-opacity:1;fill-rule:nonzero;stroke:none"
         d="m 6407.5,2108.76 h 83.41 l -54.23,89.93 z" /><path
         id="path90"
         style="fill:#f14c33;fill-opacity:1;fill-rule:nonzero;stroke:none"
         d="m 6092.06,2108.76 h 155.41 l -84.51,138.48 z" /><path
         id="path92"
         style="fill:#f5f014;fill-opacity:1;fill-rule:nonzero;stroke:none"
         d="m 5834.42,2258.94 6.03,34.15 h -439.43 l -20.59,-34.15 h 453.99" /><path
         id="path94"
         style="fill:#f5f014;fill-opacity:1;fill-rule:nonzero;stroke:none"
         d="m 6379.78,2293.09 h -413.67 l 9.15,-34.15 h 425.1 l -20.58,34.15" /><path
         id="path96"
         style="fill:#f46d1b;fill-opacity:1;fill-rule:nonzero;stroke:none"
         d="m 5738.16,2852.32 v -0.01 h 304.47 l -152.23,252.54 -152.24,-252.53" /><path
         id="path98"
         style="fill:#f7990f;fill-opacity:1;fill-rule:nonzero;stroke:none"
         d="m 7813.14,3882.89 c 0,0 297.69,125.77 522.46,80.38 224.77,-45.4 362.11,-18.56 555.12,-6.19 193.02,12.37 353.77,10.49 508.35,16.06 154.56,5.59 414.27,10.14 503.91,-26.14 89.65,-36.29 185.52,-36.29 290.62,-88.84 105.1,-52.56 200.9,-40.65 219.5,-170.27 18.5,-129.61 250.4,-120.33 58.7,-175.97 -191.7,-55.65 -469.9,-83.47 -633.73,-95.85 -163.85,-12.36 -404.36,-43.27 -551.53,15.46 -147.14,58.73 -240.23,52.66 -376.09,15.51 -135.86,-37.14 -135.86,-162.45 -494.48,-163.17 -358.61,-0.73 -992.37,70.38 -905.79,147.66 86.55,77.28 358.6,163.85 299.86,238.05 -58.73,74.19 -233.84,142.51 3.1,213.31" /><path
         id="path100"
         style="fill:#f19012;fill-opacity:1;fill-rule:nonzero;stroke:none"
         d="m 8784.84,4378.27 c -0.04,1.88 -0.06,3.79 -0.06,5.75 0,66.72 1.37,149.77 1.59,210.87 0.27,-55.25 -1.23,-142.56 -1.53,-216.62" /><path
         id="path102"
         style="fill:#f16418;fill-opacity:1;fill-rule:nonzero;stroke:none"
         d="m 8211.08,3561.68 c -191.74,0 -353.49,13.97 -316.18,72.52 28.12,-33.71 162.52,-42.68 316.18,-42.68 145.22,0 307.66,8.03 413.7,10.78 49.3,1.28 93.28,1.77 135.86,1.77 70.28,0 136.74,-1.33 216.83,-2.67 80.12,-1.34 173.85,-2.68 298.78,-2.68 104.33,0 230.43,0.94 388.41,3.58 639.74,10.73 643.54,56.58 681.54,92.67 7.8,-11.46 9.4,-21.26 2,-27.97 -40,-36.37 -32.7,-83.63 -683.54,-94.54 -157.94,-2.65 -284,-3.58 -388.32,-3.58 -124.94,0 -218.68,1.34 -298.81,2.68 -80.1,1.34 -146.56,2.67 -216.84,2.67 -42.6,0 -86.6,-0.49 -135.91,-1.77 -106.04,-2.76 -268.49,-10.78 -413.7,-10.78" /><path
         id="path104"
         style="fill:#f14b21;fill-opacity:1;fill-rule:nonzero;stroke:none"
         d="m 7959.43,3714.84 c 0,0 225.43,138.34 370.86,156.52 145.43,18.17 159.99,54.54 170.89,76.35 10.91,21.82 18.18,54.53 47.28,54.53 29.07,0 61.81,29.09 61.81,79.99 0,50.9 0,574.47 0,574.47 0,0 21.8,-14.54 87.25,0 65.45,14.55 83.62,47.27 87.26,18.19 3.65,-29.09 0,-181.8 0,-290.87 0,-109.09 54.55,-98.18 98.19,-105.45 43.61,-7.27 109.07,-89.27 116.33,-124.63 7.27,-35.34 3.65,-148.06 25.45,-158.96 21.82,-10.91 25.44,-3.64 65.45,-3.64 40,0 76.35,229.06 72.71,287.23 -3.64,58.18 80,112.71 123.63,76.35 43.63,-36.35 134.53,-122 189.06,-200.98 54.55,-78.98 163.62,-155.33 214.53,-224.41 50.89,-69.08 330.87,-87.75 403.57,-78.42 72.7,9.34 294.5,-117.91 254.5,-154.27 -40,-36.36 -32.7,-83.63 -683.54,-94.54 -347.15,-5.81 -540.16,-3.36 -687.19,-0.9 -128.62,2.14 -222.05,4.29 -352.69,0.9 -279.96,-7.27 -952.58,-51.26 -665.35,112.54" /><path
         id="path106"
         style="fill:#d02624;fill-opacity:1;fill-rule:nonzero;stroke:none"
         d="m 9538.96,3733.59 h -6.73 l -1.24,1.25 h -8.33 c 0,0 -7.63,-5.42 -12.54,-6.52 0,0 0.39,-0.75 -0.41,-1.82 -0.81,-1.07 -3.6,-3.29 -5.57,-3.12 -1.95,0.17 -1.97,0.96 -1.97,0.96 0,0 -5.04,-1.16 -7.1,-3 -2.05,-1.83 -2.98,-2.34 -5.21,-3.28 -2.19,-0.91 -3.12,-1.95 -4.13,-5.46 -0.96,-3.51 -5.36,-6.89 -8.72,-7.57 -3.4,-0.67 -4.25,0.42 -4.25,0.42 0,0 -3.91,-0.45 -4.93,3.98 0,0 -6.35,3 -7.53,6.2 -1.18,3.19 -0.94,5.39 -1.34,6.32 -0.38,0.92 -3.85,4.43 -3.99,7.21 -0.13,2.78 1.57,4.15 1.57,4.15 0,0 -0.86,2.14 0.65,3.7 1.48,1.57 19.2,22.31 19.2,22.31 l -0.49,0.58 3.95,4.58 h 0.83 c 0,0 20.48,25.74 24.38,31.1 3.9,5.36 9.06,10.09 9.06,10.09 l -0.04,1.34 c 0,0 -0.6,-0.65 -1.41,-1.77 0,0 1.29,2.73 2.64,4.26 1.35,1.5 2.97,2.65 2.97,2.65 0,0 -3.04,7.47 -3.52,10.72 -0.48,3.26 -1.54,8.77 -1.82,10.21 -0.27,1.44 -0.71,3.99 -0.51,4.03 0.19,0.03 2.02,-2.53 3.37,-5.85 1.39,-3.32 2.94,-5.04 4.47,-6.6 1.54,-1.57 3.37,-2.93 3.37,-2.93 0,0 -0.16,3.5 0.09,6.82 0.25,3.32 -0.04,6.32 -0.32,7.53 -0.28,1.22 -0.24,1.5 0.02,1.5 0.26,0 3.86,-1.94 6.41,-7.3 2.57,-5.36 4.89,-12.01 7.01,-13.22 2.1,-1.21 3.76,-1.21 5.61,-2.61 1.85,-1.41 1.85,-1.41 1.85,-1.41 0,0 0.37,0.55 2.17,-0.09 1.78,-0.64 1.48,-0.77 1.48,-0.77 0,0 0.3,0.89 1.59,0.89 1.27,0 5.87,-2.54 5.87,-2.54 0,0 -0.76,1.59 -2.23,2.23 0,0 6.13,-0.9 9.76,-5.24 0,0 -5.92,7.28 -10.26,9.12 0,0 7.25,-3.69 10.77,-8.74 0,0 -4.97,10.16 -14.82,12.64 0,0 8.39,-0.38 15.53,-11.49 0,0 -2.29,5.75 -4.97,7.79 0,0 5.48,-4.46 7.58,-9.19 0,0 0.46,3.58 -2.42,6.77 -2.87,3.18 -2.09,9.38 -2.09,9.38 0,0 -0.35,-5.3 1.83,-7.98 2.17,-2.68 4.6,-5.74 5.18,-8.94 0,0 0.82,2.11 -1.09,4.98 0,0 7.47,-7.09 8.86,-13.79 0,0 2.71,4.4 8.25,6.32 5.55,1.92 6.89,7.99 6.89,7.99 0,0 -1.09,-5.69 -5.61,-8.37 -4.55,-2.68 -4.61,-4.22 -4.61,-4.22 0,0 4.74,4.35 8.63,5.69 3.88,1.34 5.28,4.91 5.28,4.91 0,0 -2.87,-4.72 -6.11,-6.12 -3.27,-1.41 -5.04,-5.24 -5.04,-5.24 0,0 3.81,3.39 7.85,4.28 4.01,0.89 7.41,0.83 7.41,0.83 0,0 -8.43,-0.45 -13.1,-4.98 0,0 5.56,1.02 6.96,2.62 0,0 -3.14,-3.77 -6.45,-4.98 0,0 5.35,1.34 10.08,0.57 4.73,-0.77 9.4,1.66 9.4,1.66 0,0 -3.64,-2.48 -8.5,-2.68 -4.84,-0.19 -7.98,-1.41 -7.98,-1.41 0,0 4.79,0.06 7.98,-1.66 3.19,-1.72 7.16,-4.79 11.56,-4.21 0,0 -3.51,-0.96 -7.92,1.34 -4.4,2.3 -9.52,2.17 -9.52,2.17 0,0 6.96,-1.72 13.29,-5.36 6.32,-3.64 9.95,-1.09 9.95,-1.09 0,0 -3.76,-1.85 -8.1,-0.96 -4.34,0.9 -4.34,0.9 -4.34,0.9 0,0 6.9,-1.79 9.58,-5.3 2.68,-3.51 6.12,-2.3 6.12,-2.3 0,0 -2.81,-1.02 -5.17,0.2 0,0 3.46,-4.57 11.1,-0.35 0,0 -3.92,-3.07 -6.79,-3.17 0,0 9.38,-0.09 14.65,2.88 0,0 -8.04,-4.12 -13.31,-4.22 0,0 10.15,-3.25 13.31,-8.91 0,0 -4.4,5.09 -14.74,7.1 0,0 12.63,-4.5 18.39,-14.65 5.73,-10.16 12.63,-6.23 12.63,-6.23 0,0 -6.9,-3.84 -13.11,3.35 -6.23,7.19 -7.85,6.23 -7.85,6.23 0,0 8.13,-6.13 10.72,-12.06 2.58,-5.95 12.24,-4.8 12.24,-4.8 0,0 -5.07,-1.53 -8.79,0.1 0,0 3.82,-6.7 10.35,-9.19 6.49,-2.5 12.23,-1.44 12.23,-1.44 0,0 -7.85,-2.39 -13.98,0.86 0,0 4.4,-4.02 5.86,-6.7 1.42,-2.69 7.17,-2.69 7.17,-2.69 0,0 -3.83,-0.66 -6.31,0.49 0,0 1.99,-2.59 6.69,-4.6 4.69,-2.01 16.86,-7.47 25.28,-11.11 8.44,-3.64 32.09,-7.24 56.07,-2.39 24.02,4.85 63.85,14.3 90.02,9.19 26.18,-5.1 50.56,-23.11 58.09,-26.04 7.53,-2.94 26.18,-6.65 31.8,-18.52 0,0 -2.56,4.21 -8.56,7.53 0,0 2.17,-2.26 5.88,-8.73 3.7,-6.46 15.06,-12.2 22.48,-31.1 7.38,-18.9 39.04,-16.34 50.28,-2.04 11.27,14.31 7.77,23.88 7.77,23.88 0,0 4.6,-14.69 -7.38,-26.95 0,0 18.88,12.26 21.18,31.29 0,0 -5.5,-34.86 -35.87,-42.9 0,0 15.96,0.13 28.77,15.19 12.7,15.07 40.6,16.09 40.6,16.09 0,0 -26.6,-3.07 -37.6,-16.6 0,0 35.5,21.45 68.7,-19.14 0,0 -13.2,15.21 -30.6,18.12 0,0 9.8,-8.63 15,-8 0,0 -8.4,-0.18 -14.5,4.17 0,0 13.5,-19.15 34.5,-18.13 0,0 -21.5,-15.33 -49.3,-17.11 0,0 24.2,-0.25 36.7,4.84 0,0 -31.4,-16.59 -42.6,-16.84 0,0 36.8,4.6 51.1,20.69 0,0 -20.5,-25.28 -62.3,-27.59 0,0 31.6,-1.26 49,3.84 0,0 -56.2,-16.88 -86.83,-3.98 -30.64,12.92 -39.32,24.91 -39.32,24.91 0,0 17.1,-20.21 39.58,-29.77 0,0 -32.44,7.81 -48.01,32.85 0,0 9.7,-21 29.37,-32.85 0,0 -38.61,10.38 -53.65,31.58 -15.05,21.18 -15.05,30.1 -15.05,30.1 0,0 -3.08,-15.12 -12,-28.63 -8.94,-13.48 -16.08,-20.13 -16.35,-22.67 -0.24,-2.57 0.65,-11.12 7.17,-18.01 6.5,-6.9 32.05,-17.62 30.77,-23.75 -1.28,-6.12 -7.41,-11.68 -7.41,-11.68 0,0 -14.16,-24.51 -18.57,-33.71 -4.42,-9.2 -12.74,-24.81 -11.41,-28.72 1.35,-3.94 1.17,-6.04 0.1,-7.38 -1.06,-1.32 -3.45,-1.63 -2.97,-2.68 0.5,-1.05 1.54,-2.58 1.54,-2.58 0,0 6.61,0.28 7.76,-4.98 1.15,-5.25 -2.78,-28.54 -6.78,-27.1 -4.04,1.45 -6.44,8.91 -7.98,11.3 -1.52,2.39 -3.35,2.29 -5.36,8.71 -2,6.42 -6.7,18.87 -7.85,20.69 -1.14,1.81 -1.23,5.55 2.29,10.62 3.56,5.08 20.98,36.2 21.94,41.95 0.96,5.75 1.43,11.19 -2.2,15.31 -3.63,4.13 -8.15,8.24 -13.12,10.35 -4.97,2.11 -9.67,4.59 -12.17,6.88 -2.49,2.31 -6.79,5.75 -6.79,5.75 0,0 1.35,-5.75 4.3,-9.85 2.98,-4.12 10.63,-15.42 7.56,-20.21 -3.04,-4.8 -33.7,-27.58 -39.73,-34.76 -6.01,-7.17 -15.89,-16.08 -18.19,-21.16 -2.29,-5.07 -0.58,-5.46 -2.57,-6.41 -2.02,-0.97 -3.37,0.47 -4.42,-0.1 -1.04,-0.57 -2.77,-1.44 -3.35,-3.54 -0.57,-2.11 -0.51,-2.69 0.94,-3.93 1.46,-1.25 4.05,-7.56 1.46,-10.15 -2.59,-2.58 -7.51,-6.9 -10.7,-9.87 -3.19,-2.96 -10.19,-7.46 -10.57,-2.2 -0.37,5.28 0.78,9.49 0.78,12.35 0,2.88 -1.34,3.65 0.3,7 1.62,3.35 3.9,8.99 5.24,14.75 1.34,5.74 1.16,10.72 5.37,15.02 4.22,4.31 35.05,30.54 37.46,36.11 2.38,5.55 2.99,11.3 -0.94,21.06 -3.96,9.77 -14.5,19.24 -17.93,28.53 -3.46,9.3 -4.89,14.18 -6.62,16.1 -1.72,1.9 -1.76,-0.11 -3.85,5.17 -2.09,5.26 -2.95,11.01 -2.95,11.01 0,0 -18.55,-9.01 -49.95,-16.67 -31.41,-7.66 -58.73,-5.61 -58.73,-5.61 0,0 -2.18,-4.09 -5.48,-8.29 -3.34,-4.23 -4.62,-16.62 -6.13,-28.22 -1.54,-11.63 -4.73,-30.14 -4.22,-34.09 0.51,-3.96 0.76,-4.35 0.37,-7.41 -0.37,-3.07 -2.82,-5.05 4.55,-11.95 7.36,-6.88 17.03,-14.83 18.56,-15.02 1.54,-0.2 3.08,0.37 5.09,-1.72 2.01,-2.11 5.54,-3.46 8.32,-4.02 2.79,-0.59 4.9,-1.45 5.08,-3.65 0.19,-2.2 1.34,-5.06 4.61,-3.63 3.24,1.43 8.7,7.46 12.92,-0.39 4.21,-7.85 6.97,-26.24 2.68,-26.24 -4.32,0 -9.97,5.09 -10.92,5.75 -0.96,0.68 -2.98,1.15 -5.44,3.55 -2.51,2.38 -8.05,5.07 -12.66,6.4 -4.59,1.35 -5.84,-0.37 -11.68,5.28 -5.84,5.65 -25.76,24.31 -28.25,25.08 -2.49,0.77 -10.82,4.89 -13.97,15.13 -3.18,10.25 -2.31,31.41 -3.18,38.68 -0.85,7.3 -3.73,29.6 -3.73,29.6 0,0 -4.01,7.46 -6.21,7.08 -2.21,-0.38 -8.99,-6.02 -15.32,-11.77 -6.33,-5.74 -27.97,-24.24 -27.97,-24.24 0,0 1.05,-1.05 -0.77,-6.02 -1.83,-4.99 -1.62,-8.14 -0.09,-11.79 1.54,-3.63 13.59,-24.21 18.18,-28.06 4.6,-3.82 9.03,-3.63 8.44,-7.37 -0.57,-3.73 0.2,-7.56 4.02,-8.32 3.83,-0.77 10.26,2.02 12.45,-2.69 2.2,-4.68 1.92,-28.82 -3.91,-27.1 -5.84,1.73 -6.61,7.09 -8.54,9.39 -1.91,2.31 -3.64,3.55 -4.29,5.56 -0.69,2 -9.21,8.22 -10.55,9.39 -1.35,1.14 -4.88,2.1 -7.36,4.01 -2.49,1.91 -2.22,5.37 -3.45,7.75 -1.26,2.42 -16.76,31.81 -18.77,33.33 -2,1.54 -5.27,3.72 -5.75,8.14 -0.48,4.4 0.38,10.54 0.19,13.41 -0.19,2.87 0.08,5.27 4.51,11.48 4.39,6.22 19.14,25.39 21.34,31.41 2.2,6.03 7.18,14.47 6.8,15.52 -0.38,1.05 -5.17,4.2 -10.83,13.59 -5.64,9.39 -15.5,22.89 -14.64,31.99 0.87,9.09 3.15,15.31 2.59,17.52 -0.59,2.2 -5.57,15.03 -9.48,26.42 -3.94,11.4 -7.66,30.55 -9.09,37.63 -1.43,7.09 -1.75,10.06 -4.31,11.78 -2.6,1.72 -3.24,2.77 -3.16,3.25" /><path
         id="path108"
         style="fill:#f36a17;fill-opacity:1;fill-rule:nonzero;stroke:none"
         d="m 7958.18,3714.12 c 0.01,0.01 0.04,0.03 0.06,0.04 -0.02,-0.01 -0.05,-0.03 -0.06,-0.04 m 0.38,0.22 c 0.06,0.03 0.1,0.06 0.16,0.09 -0.05,-0.03 -0.11,-0.06 -0.16,-0.09 m 0.43,0.25 c 0.15,0.08 0.29,0.16 0.44,0.25 -0.14,-0.08 -0.3,-0.17 -0.44,-0.25" /><path
         id="path110"
         style="fill:#f29955;fill-opacity:1;fill-rule:nonzero;stroke:none"
         d="m 8645.81,4650.24 c -25.84,0 -35.54,6.46 -35.54,6.46 0,0 9.71,-6.42 35.51,-6.41 11.08,0 25.12,1.18 42.64,4.56 0,-0.01 0,-0.03 0,-0.04 -17.51,-3.39 -31.54,-4.57 -42.61,-4.57" /><path
         id="path112"
         style="fill:#f03a21;fill-opacity:1;fill-rule:nonzero;stroke:none"
         d="m 8064.6,3595.25 c -157.5,9.56 -243.98,39.95 -106.42,118.87 0.01,0.01 0.04,0.03 0.06,0.04 0.1,0.06 0.22,0.12 0.32,0.18 0.05,0.03 0.11,0.06 0.16,0.09 0.09,0.05 0.18,0.11 0.27,0.16 0.14,0.08 0.3,0.17 0.44,0.25 v 0 c 0,0 225.43,138.34 370.86,156.52 145.43,18.17 159.99,54.54 170.89,76.35 10.91,21.82 18.18,54.53 47.28,54.53 29.07,0 61.81,29.09 61.81,79.99 0,50.9 0,574.47 0,574.47 v 0 c 0,0 9.7,-6.46 35.54,-6.46 11.07,0 25.1,1.18 42.61,4.57 -7.55,-89.59 -28.23,-345.89 -28.23,-459.68 0,-139.12 21.65,-194.77 -24.71,-207.12 -46.38,-12.38 -68.02,0 -71.11,-46.38 -3.1,-46.37 -37.1,-105.11 -71.11,-114.39 -33.57,-9.15 149.78,-18.8 243.72,-18.8 1.21,0 2.42,0 3.61,0 50.05,0.14 103.7,6.51 131.32,6.51 23.54,0 28.15,-4.64 -4.58,-21.72 -69.68,-36.35 -74.02,-59.75 -318.56,-59.75 -4.99,0 -10.1,0.01 -15.3,0.03 -9.31,0.04 -18.56,0.06 -27.83,0.06 -249.47,0 -482.39,-13.09 -485.37,-57.81 -2.01,-30.12 45.49,-58.93 44.33,-80.51" /><path
         id="path114"
         style="fill:#ef3721;fill-opacity:1;fill-rule:nonzero;stroke:none"
         d="m 8910.15,4266.79 -2.09,1.3 2.09,-1.3" /><path
         id="path116"
         style="fill:#f18c45;fill-opacity:1;fill-rule:nonzero;stroke:none"
         d="m 9047.07,3988.97 c -0.02,0 -0.05,0 -0.08,0 0.03,0 0.06,0 0.08,0 v 0 m 0.17,0 c 1.91,0 3.89,0.11 6.03,0.27 -2.14,-0.16 -4.12,-0.27 -6.03,-0.27 m -19.73,4.68 c -0.02,0.01 -0.03,0.02 -0.05,0.03 0.02,-0.01 0.03,-0.02 0.05,-0.03 m -0.73,0.35 c -0.37,0.17 -0.75,0.35 -1.13,0.54 0.38,-0.19 0.76,-0.37 1.13,-0.54 m -27.48,159.94 c -0.02,0.07 -0.03,0.13 -0.04,0.19 0.01,-0.06 0.02,-0.12 0.04,-0.19 m -0.06,0.27 c -0.01,0.03 -0.01,0.07 -0.02,0.1 0.01,-0.03 0.01,-0.07 0.02,-0.1 m -0.04,0.2 c -0.01,0.03 -0.02,0.06 -0.02,0.1 0,-0.04 0.01,-0.07 0.02,-0.1 m -0.04,0.19 c -0.01,0.03 -0.02,0.05 -0.02,0.08 0,-0.03 0.01,-0.05 0.02,-0.08 m -0.12,0.51 c 0,0.01 -0.01,0.02 -0.01,0.02 0,0 0.01,-0.01 0.01,-0.02 m -0.04,0.17 c -0.01,0.02 -0.01,0.02 -0.01,0.04 0,-0.02 0,-0.03 0.01,-0.04 m 163.8,126 c -0.72,44.09 47.76,85.29 89.68,85.37 -41.92,-0.08 -90.4,-41.28 -89.68,-85.37 m 123.74,73.64 c -0.23,0.2 -0.47,0.39 -0.71,0.59 0.24,-0.2 0.48,-0.39 0.71,-0.59 m -33.88,11.73 c -0.02,0 -0.03,0 -0.05,0 v 0 c 0.02,0 0.03,0 0.05,0" /><path
         id="path118"
         style="fill:#ef3721;fill-opacity:1;fill-rule:nonzero;stroke:none"
         d="m 9062.76,3946.99 c -69.66,0.01 -99.6,24.6 -99.6,109.02 0,98.47 -30.01,191.65 -52.71,210.57 38.88,-25.21 81.63,-82.34 88.54,-111.26 0,-0.02 0,-0.02 0.01,-0.04 0.01,-0.05 0.02,-0.1 0.03,-0.15 0,0 0.01,-0.01 0.01,-0.02 0.03,-0.14 0.07,-0.29 0.1,-0.43 0,-0.03 0.01,-0.05 0.02,-0.08 0,-0.03 0.01,-0.06 0.02,-0.09 0,-0.04 0.01,-0.07 0.02,-0.1 0,-0.03 0.01,-0.06 0.02,-0.1 0.01,-0.03 0.01,-0.07 0.02,-0.1 0.01,-0.03 0.01,-0.06 0.02,-0.08 0.01,-0.06 0.02,-0.12 0.04,-0.19 v 0 c 7.27,-35.34 3.65,-148.06 25.45,-158.96 0.31,-0.15 0.6,-0.3 0.9,-0.44 0.38,-0.19 0.76,-0.37 1.13,-0.54 0.23,-0.11 0.45,-0.22 0.68,-0.32 0.02,-0.01 0.03,-0.02 0.05,-0.03 7.79,-3.59 13.26,-4.67 19.48,-4.68 0.03,0 0.06,0 0.08,0 v 0 0 c 0.06,0 0.11,0 0.17,0 1.91,0 3.89,0.11 6.03,0.27 8.25,0.62 18.89,2.1 36.93,2.1 38.12,0 72.94,208.09 72.96,277.97 0,3.43 -0.08,6.53 -0.25,9.26 v 0 c -0.06,0.91 -0.09,1.81 -0.11,2.71 -0.72,44.09 47.76,85.29 89.68,85.37 0.04,0 0.09,0 0.13,0 0.02,0 0.03,0 0.05,0 12.04,-0.01 23.55,-3.42 33.17,-11.14 0.24,-0.2 0.48,-0.39 0.71,-0.59 v 0 c 0,0 -40.19,-29.95 -41.11,-107.24 -0.94,-77.28 -12.48,-284.41 -124.18,-296.78 -21.98,-2.43 -41.43,-3.91 -58.49,-3.91" /><path
         id="path120"
         style="fill:#f7990f;fill-opacity:1;fill-rule:nonzero;stroke:none"
         d="m 10093.7,3851.11 c -72.7,-9.33 -352.67,9.34 -403.57,78.42 -50.91,69.08 -159.98,145.43 -214.52,224.41 -36.37,52.68 -88.89,108.27 -132.82,150.27 9.05,-9.2 136.22,-140.52 124.3,-238.92 -12.37,-102.02 126.74,-145.31 80.37,-179.31 -46.38,-34 -336.35,-56.15 -260.92,-77.54 75.43,-21.38 196,12.62 341.3,18.8 145.29,6.19 272.05,2.59 432.76,-18.8 160.8,-21.38 278.7,-83.68 278.5,-120.55 3,3.05 5.9,6.03 9.1,8.95 40,36.36 -181.8,163.61 -254.5,154.27" /><path
         id="path122"
         style="fill:#36ad3f;fill-opacity:1;fill-rule:nonzero;stroke:none"
         d="m 8165.27,4410.89 c -1.72,51.36 -1.4,147.15 50.57,131.17 51.96,-15.98 39.09,-160.07 36.17,-231.11 0,0 67.47,103.38 108.27,102.97 40.81,-0.4 69.41,-59.72 19.66,-109.3 -49.77,-49.57 -140.01,-160.8 -140.01,-160.8 l -14.35,-257.65 -37.2,-1.25 c 0,0 -21.36,474.59 -23.11,525.97" /><path
         id="path124"
         style="fill:#36ad3f;fill-opacity:1;fill-rule:nonzero;stroke:none"
         d="m 8208.52,4076.41 c 0,0 -108.67,224.08 -140.39,217.69 -31.69,-6.4 -45.46,-19.29 -24.96,-48.74 20.52,-29.45 159.06,-193.27 159.06,-193.27 l 6.29,24.32" /><path
         id="path126"
         style="fill:#f89a17;fill-opacity:1;fill-rule:nonzero;stroke:none"
         d="m 7306.69,2647.16 c -1.59,47.29 -1.29,135.47 46.54,120.75 47.85,-14.72 35.99,-147.35 33.31,-212.77 0,0 62.1,95.17 99.67,94.82 37.57,-0.38 63.9,-54.98 18.1,-100.63 -45.81,-45.63 -128.89,-148.04 -128.89,-148.04 l -13.21,-237.19 -34.25,-1.16 c 0,0 -19.68,436.92 -21.27,484.22" /><path
         id="path128"
         style="fill:#f14b21;fill-opacity:1;fill-rule:nonzero;stroke:none"
         d="m 7346.48,2339.23 c 0,0 -100.02,206.29 -129.21,200.4 -29.18,-5.88 -41.87,-17.75 -22.98,-44.87 18.88,-27.11 146.42,-177.91 146.42,-177.91 l 5.77,22.38" /><path
         id="path130"
         style="fill:#36ad3f;fill-opacity:1;fill-rule:nonzero;stroke:none"
         d="m 3595.51,3898.09 c -1.58,47.3 -1.29,135.48 46.55,120.76 47.84,-14.72 35.99,-147.36 33.31,-212.76 0,0 62.1,95.16 99.66,94.8 37.57,-0.37 63.91,-54.98 18.1,-100.63 -45.81,-45.62 -128.89,-148.04 -128.89,-148.04 l -13.21,-237.18 -34.25,-1.16 c 0,0 -19.67,436.92 -21.27,484.21" /><path
         id="path132"
         style="fill:#36ad3f;fill-opacity:1;fill-rule:nonzero;stroke:none"
         d="m 3635.32,3590.17 c 0,0 -100.04,206.29 -129.23,200.4 -29.18,-5.88 -41.86,-17.74 -22.98,-44.86 18.89,-27.11 146.43,-177.93 146.43,-177.93 l 5.78,22.39" /><path
         id="path134"
         style="fill:#ed1d2a;fill-opacity:1;fill-rule:nonzero;stroke:none"
         d="m 7397.28,2153.73 c -72.56,0 -131.36,10.06 -131.36,22.48 0,7.96 24.15,14.95 60.59,18.94 0.91,-20.22 1.45,-32.21 1.45,-32.21 l 34.25,1.16 1.88,33.87 c 10.6,0.47 21.72,0.72 33.19,0.72 72.53,0 131.34,-10.06 131.34,-22.48 0,-12.42 -58.81,-22.48 -131.34,-22.48" /><path
         id="path136"
         style="fill:#ee2a23;fill-opacity:1;fill-rule:nonzero;stroke:none"
         d="m 7327.96,2162.94 c 0,0 -0.54,11.99 -1.45,32.21 11.44,1.26 24.09,2.22 37.58,2.82 l -1.88,-33.87 -34.25,-1.16" /><path
         id="path138"
         style="fill:#f89a17;fill-opacity:1;fill-rule:nonzero;stroke:none"
         d="m 5034.65,2294.28 c -1.59,47.29 -1.28,135.48 46.55,120.75 47.84,-14.72 35.98,-147.36 33.3,-212.76 0,0 62.11,95.17 99.67,94.81 37.57,-0.37 63.9,-54.98 18.1,-100.63 -45.81,-45.63 -128.89,-148.03 -128.89,-148.03 l -13.22,-237.19 -34.24,-1.16 c 0,0 -19.67,436.91 -21.27,484.21" /><path
         id="path140"
         style="fill:#ed1d2a;fill-opacity:1;fill-rule:nonzero;stroke:none"
         d="m 5125.24,1800.86 c -72.54,0 -131.36,10.05 -131.36,22.47 0,7.96 24.16,14.95 60.59,18.95 0.91,-20.22 1.45,-32.21 1.45,-32.21 l 34.24,1.16 1.89,33.86 c 10.6,0.47 21.72,0.72 33.19,0.72 72.53,0 131.35,-10.05 131.35,-22.48 0,-12.42 -58.82,-22.47 -131.35,-22.47" /><path
         id="path142"
         style="fill:#ee2a23;fill-opacity:1;fill-rule:nonzero;stroke:none"
         d="m 5055.92,1810.07 c 0,0 -0.54,11.99 -1.45,32.21 11.44,1.25 24.09,2.21 37.58,2.81 l -1.89,-33.86 -34.24,-1.16" /><path
         id="path144"
         style="fill:#36ad3f;fill-opacity:1;fill-rule:nonzero;stroke:none"
         d="m 3474.18,3402.51 c 0,0 153.31,161.61 328.07,0 h -328.07" /><path
         id="path146"
         style="fill:#36ad3f;fill-opacity:1;fill-rule:nonzero;stroke:none"
         d="m 6218.47,5711.94 c -1.6,47.29 -1.29,135.48 46.53,120.76 47.85,-14.72 36,-147.36 33.31,-212.77 0,0 62.1,95.17 99.68,94.81 37.55,-0.38 63.89,-54.98 18.09,-100.63 -45.83,-45.62 -128.88,-148.04 -128.88,-148.04 l -13.24,-237.18 -34.24,-1.15 c 0,0 -19.65,436.91 -21.25,484.2" /><path
         id="path148"
         style="fill:#36ad3f;fill-opacity:1;fill-rule:nonzero;stroke:none"
         d="m 6258.26,5404.02 c 0,0 -100.03,206.29 -129.22,200.4 -29.19,-5.89 -41.87,-17.75 -23,-44.86 18.91,-27.12 146.45,-177.92 146.45,-177.92 l 5.77,22.38" /><path
         id="path150"
         style="fill:#36ad3f;fill-opacity:1;fill-rule:nonzero;stroke:none"
         d="m 6097.13,5216.36 c 0,0 153.31,161.61 328.06,0 h -328.06" /><path
         id="path152"
         style="fill:#f89a17;fill-opacity:1;fill-rule:nonzero;stroke:none"
         d="m 5343.08,4389.18 c -1.61,47.29 -1.29,135.47 46.53,120.75 47.85,-14.72 36,-147.35 33.31,-212.76 0,0 62.1,95.16 99.67,94.81 37.56,-0.38 63.9,-54.98 18.1,-100.63 -45.83,-45.63 -128.88,-148.04 -128.88,-148.04 l -13.24,-237.19 -34.24,-1.15 c 0,0 -19.66,436.91 -21.25,484.21" /><path
         id="path154"
         style="fill:#f89a17;fill-opacity:1;fill-rule:nonzero;stroke:none"
         d="m 5382.88,4081.26 c 0,0 -100.03,206.28 -129.23,200.39 -29.19,-5.88 -41.87,-17.74 -23,-44.85 18.91,-27.12 146.44,-177.92 146.44,-177.92 l 5.79,22.38" /><path
         id="path156"
         style="fill:#f89a17;fill-opacity:1;fill-rule:nonzero;stroke:none"
         d="m 5221.74,3893.59 c 0,0 153.3,161.61 328.05,0 h -328.05" /><path
         id="path158"
         style="fill:#36ad3f;fill-opacity:1;fill-rule:nonzero;stroke:none"
         d="m 5638.04,6698.55 c -1.6,47.3 -1.29,135.48 46.53,120.77 47.85,-14.73 36,-147.37 33.31,-212.77 0,0 62.1,95.16 99.68,94.81 37.55,-0.38 63.9,-54.98 18.1,-100.63 -45.83,-45.63 -128.9,-148.04 -128.9,-148.04 l -13.22,-237.18 -34.24,-1.16 c 0,0 -19.66,436.91 -21.26,484.2" /><path
         id="path160"
         style="fill:#36ad3f;fill-opacity:1;fill-rule:nonzero;stroke:none"
         d="m 5677.84,6390.63 c 0,0 -100.04,206.29 -129.23,200.4 -29.2,-5.88 -41.87,-17.74 -22.99,-44.86 18.9,-27.11 146.44,-177.91 146.44,-177.91 l 5.78,22.37" /><path
         id="path162"
         style="fill:#36ad3f;fill-opacity:1;fill-rule:nonzero;stroke:none"
         d="m 5516.7,6202.98 c 0,0 153.31,161.6 328.06,0 H 5516.7" /><path
         id="path164"
         style="fill:#ed4621;fill-opacity:1;fill-rule:nonzero;stroke:none"
         d="m 5369.94,5858.46 c -10.31,75.52 -50.64,112.44 -85.84,108.16 -35.18,-4.28 -121.87,18.02 -121.87,18.02 -11.01,2.66 -26.78,1.99 -37,1.1 -10.22,0.89 -25.97,1.56 -36.99,-1.1 0,0 -86.69,-22.3 -121.88,-18.02 -35.2,4.28 -75.53,-32.64 -85.83,-108.16 -10.3,-75.52 -6.86,-184.53 32.62,-237.75 39.48,-53.21 135.59,-145.86 147.61,-193.92 10.96,-43.77 30.6,-40.62 64.47,-39.69 33.88,-0.93 53.52,-4.08 64.47,39.69 12.02,48.06 108.14,140.71 147.62,193.92 39.48,53.22 42.91,162.23 32.62,237.75" /><path
         id="path166"
         style="fill:#f89a17;fill-opacity:1;fill-rule:nonzero;stroke:none"
         d="m 5351.96,5953.5 c 0,0 151.28,-35.13 275.06,44.34 123.78,79.44 221.57,313.25 623.47,281.16 0,0 25.97,-16.8 0,-24.45 -25.98,-7.63 -215.46,-21.54 -357.58,-140.66 -142.11,-119.12 -220.05,-290.26 -496.64,-297.9 0,0 -9.17,94.74 -44.31,137.51" /><path
         id="path168"
         style="fill:#f89a17;fill-opacity:1;fill-rule:nonzero;stroke:none"
         d="m 4900.49,5953.5 c 0,0 -151.28,-35.13 -275.06,44.34 -123.78,79.44 -221.58,313.25 -623.47,281.16 0,0 -25.98,-16.8 0,-24.45 25.97,-7.63 215.46,-21.54 357.58,-140.66 142.11,-119.12 220.05,-290.26 496.64,-297.9 0,0 9.17,94.74 44.31,137.51" /><path
         id="path170"
         style="fill:#7a1d1b;fill-opacity:1;fill-rule:nonzero;stroke:none"
         d="m 5010.4,5506.06 v 0.04 c -13.01,55.35 -19.08,118.87 -9.91,235.01 9,114.06 -106.7,154.22 -110.86,155.6 -3.84,-11.52 -7.15,-23.95 -9.1,-38.25 -10.3,-75.52 -6.86,-184.53 32.62,-237.75 22.65,-30.54 63.9,-74.02 97.25,-114.65" /><path
         id="path172"
         style="fill:#7a1d1b;fill-opacity:1;fill-rule:nonzero;stroke:none"
         d="m 5240.08,5506.06 v 0.04 c 13.02,55.35 19.08,118.87 9.92,235.01 -9.01,114.06 106.69,154.22 110.83,155.6 3.86,-11.52 7.17,-23.95 9.12,-38.25 10.3,-75.52 6.87,-184.53 -32.62,-237.75 -22.64,-30.54 -63.89,-74.02 -97.25,-114.65" /><path
         id="path174"
         style="fill:#ffffff;fill-opacity:1;fill-rule:nonzero;stroke:none"
         d="m 4942.98,5721.09 c 0,0 28.22,73.45 -30.78,103.6 0,0 -32.18,-51.17 30.78,-103.6" /><path
         id="path176"
         style="fill:#231f20;fill-opacity:1;fill-rule:nonzero;stroke:none"
         d="m 4950.87,5776.5 c 0,-9.96 -8.07,-18.04 -18.02,-18.04 -9.96,0 -18.04,8.08 -18.04,18.04 0,9.94 8.08,18.01 18.04,18.01 9.95,0 18.02,-8.07 18.02,-18.01" /><path
         id="path178"
         style="fill:#ffffff;fill-opacity:1;fill-rule:nonzero;stroke:none"
         d="m 5291.94,5721.09 c 0,0 -28.21,73.45 30.79,103.6 0,0 32.18,-51.17 -30.79,-103.6" /><path
         id="path180"
         style="fill:#231f20;fill-opacity:1;fill-rule:nonzero;stroke:none"
         d="m 5284.04,5776.5 c 0,-9.96 8.08,-18.04 18.04,-18.04 9.95,0 18.03,8.08 18.03,18.04 0,9.94 -8.08,18.01 -18.03,18.01 -9.96,0 -18.04,-8.07 -18.04,-18.01" /><path
         id="path182"
         style="fill:#f8a016;fill-opacity:1;fill-rule:nonzero;stroke:none"
         d="m 5128.54,5536.21 c -45.91,-3.26 -33.43,13.79 -78.97,0 -39.08,-11.82 -11.17,-65.13 -2.43,-80.09 l 0.68,-1.19 c 1.07,-1.79 1.75,-2.82 1.75,-2.82 l -0.04,-0.11 c 5.34,-9.23 9.38,-17.78 11.23,-25.21 10.96,-43.77 30.6,-40.62 64.47,-39.69 33.88,-0.93 53.52,-4.08 64.47,39.69 3.73,14.9 15.55,34.1 31.24,55.05 25.51,66.21 -46.5,57.65 -92.4,54.37" /><path
         id="path184"
         style="fill:#7a1d1b;fill-opacity:1;fill-rule:nonzero;stroke:none"
         d="m 5094.45,5494.91 c 0,-8.69 -7.04,-15.73 -15.73,-15.73 -8.69,0 -15.74,7.04 -15.74,15.73 0,8.69 7.05,15.74 15.74,15.74 8.69,0 15.73,-7.05 15.73,-15.74" /><path
         id="path186"
         style="fill:#7a1d1b;fill-opacity:1;fill-rule:nonzero;stroke:none"
         d="m 5181.65,5494.91 c 0,-8.69 -7.05,-15.73 -15.73,-15.73 -8.69,0 -15.74,7.04 -15.74,15.73 0,8.69 7.05,15.74 15.74,15.74 8.68,0 15.73,-7.05 15.73,-15.74" /><path
         id="path188"
         style="fill:#ed4621;fill-opacity:1;fill-rule:nonzero;stroke:none"
         d="m 10470.8,5723.48 c 0,0 -159.5,22.08 -257,-32.89 -97.5,-54.97 -229.42,-226.61 -117.1,-228.16 112.3,-1.54 266.8,78.06 496.3,-30.99 229.5,-109.04 415.1,-308.5 448.5,-298.64 33.3,9.86 44.6,113.1 -13,240.08 -57.7,126.98 -291.5,281.76 -558.6,173.8 l -74.1,25.51 c 0,0 11.1,61.9 45.3,98.68 34.2,36.76 29.7,52.61 29.7,52.61" /><path
         id="path190"
         style="fill:#7f321a;fill-opacity:1;fill-rule:nonzero;stroke:none"
         d="m 10461.5,5679.35 c -17.6,-23.35 -38.1,-56.12 -49.7,-94.07 l 61.2,-21.11 c 0,0 37.7,17.99 89.9,29.48 -35.3,12.25 -98.3,40.36 -101.4,85.7" /><path
         id="path192"
         style="fill:#7f321a;fill-opacity:1;fill-rule:nonzero;stroke:none"
         d="m 10996.6,5819.47 c -49.3,22.69 -161.7,44.27 -210.6,72.54 -48.9,28.26 -123.8,109.31 -161.9,56.93 -37.6,-51.83 -93.3,-187.98 -128.8,-230.73 5.2,-17.13 32.1,-61.87 170.5,-116.08 6,-0.47 12.1,-1.14 18.2,-2.05 103.1,-15.55 209,-60.58 209,-60.58 0,0 32.8,74.4 60.6,117.69 27.7,43.28 92.3,139.58 43,162.28" /><path
         id="path194"
         style="fill:#99dcd7;fill-opacity:1;fill-rule:nonzero;stroke:none"
         d="m 1781.95,5574.55 c -4.98,-73.96 2294.7,0 2294.7,0 0,0 -40.12,150.21 -179.43,172.97 -139.32,22.77 -139.32,22.77 -139.32,22.77 0,0 37.94,295.77 -144.2,367.97 -182.14,72.21 -313.55,18.34 -313.55,18.34 0,0 -134.22,212.58 -407.43,152.2 -273.21,-60.38 -258.35,-265.44 -258.35,-265.44 0,0 -246.52,43.27 -328.02,-179.41 0,0 -504.36,8.17 -524.4,-289.4" /><path
         id="path196"
         style="fill:#99dcd7;fill-opacity:1;fill-rule:nonzero;stroke:none"
         d="m 10737.6,4477.5 c -3.7,-54.88 1702.7,0 1702.7,0 0,0 -29.7,111.45 -133.1,128.34 -103.4,16.9 -103.4,16.9 -103.4,16.9 0,0 28.2,219.47 -107,273.05 -135.1,53.58 -232.6,13.61 -232.6,13.61 0,0 -99.6,157.74 -302.4,112.94 -202.7,-44.82 -191.7,-196.97 -191.7,-196.97 0,0 -182.9,32.11 -243.4,-133.13 0,0 -374.2,6.06 -389.1,-214.74" /><path
         id="path198"
         style="fill:#99dcd7;fill-opacity:1;fill-rule:nonzero;stroke:none"
         d="m 9600.96,6962.79 c 4.98,-73.95 -2294.71,0 -2294.71,0 0,0 40.13,150.21 179.43,172.97 139.33,22.77 139.33,22.77 139.33,22.77 0,0 -37.95,295.77 144.2,367.97 182.14,72.21 313.55,18.35 313.55,18.35 0,0 134.21,212.58 407.44,152.19 273.2,-60.38 258.34,-265.43 258.34,-265.43 0,0 246.52,43.27 328,-179.42 0,0 504.38,8.17 524.42,-289.4" /><path
         id="path200"
         style="fill:#99dcd7;fill-opacity:1;fill-rule:nonzero;stroke:none"
         d="m 8585.88,6147.43 h 1559.42 c 0,0 22.8,100.58 -106.2,152.28 -129.06,51.71 -159.42,36.53 -159.42,36.53 0,0 9.13,148.27 -227.68,234.08 -236.8,85.81 -318.75,-150.59 -318.75,-150.59 0,0 -99.17,135.69 -212.75,105.79 -113.59,-29.91 -149,-157.26 -149,-157.26 0,0 -336.12,-15 -385.62,-220.83" /><path
         id="path202"
         style="fill:#99dcd7;fill-opacity:1;fill-rule:nonzero;stroke:none"
         d="m 10561.4,6604.62 h 658.2 c 0,0 -254,458.57 -658.2,0" /><path
         id="path204"
         style="fill:#99dcd7;fill-opacity:1;fill-rule:nonzero;stroke:none"
         d="m 4765.33,6706.52 h 658.25 c 0,0 -253.99,458.57 -658.25,0" /><path
         id="path206"
         style="fill:#99dcd7;fill-opacity:1;fill-rule:nonzero;stroke:none"
         d="m 3052.47,5064.57 h 843.43 c 0,0 -92.21,236.62 -318.55,248.25 -226.33,11.62 -250.47,-63.82 -250.47,-63.82 0,0 -178.96,75.44 -274.41,-184.43" /><path
         id="path208"
         style="fill:#99dcd7;fill-opacity:1;fill-rule:nonzero;stroke:none"
         d="m 0,4731.36 h 843.434 c 0,0 -92.207,236.62 -318.551,248.24 -226.344,11.63 -250.473,-63.82 -250.473,-63.82 0,0 -178.9608,75.45 -274.41,-184.42" /><path
         id="path210"
         style="fill:#ffffff;fill-opacity:1;fill-rule:nonzero;stroke:none"
         d="m 4657.48,5216.97 -110.5,318.96 -256.4,-210.99 -451.41,-618.88 436.25,90.14 380.69,-202.99 35.1,332.44 437.15,187.65 -470.88,103.67" /><path
         id="path212"
         style="fill:#f46d1b;fill-opacity:1;fill-rule:nonzero;stroke:none"
         d="m 9727.23,4927.95 91.22,326.09 82.75,-356.3 z m 427.67,-328.05 -216.26,791.01 c -2.6,10.25 -10.68,15.57 -22.95,17.7 l -188.91,32.81 c -1.68,0.29 -3.28,0.48 -4.82,0.59 l -0.25,0.09 c -0.74,0.12 -1.66,0.09 -2.65,-0.01 -4.22,-0.03 -7.72,-0.93 -10.41,-2.84 -38.06,-14.32 -131.86,-76.52 -131.86,-76.52 l 50.22,-27.77 45.45,2.56 -203.91,-618.42 c -4.18,-10.02 2.51,-17.08 17.47,-19.68 l 45.97,-7.99 -63.94,-46.14 c 0,0 7.03,-45.47 41.74,-46.95 29.12,-1.25 109.35,57.5 134.45,76.45 3.01,1.01 5.31,2.81 7,5.34 l 0.62,0.46 -0.34,0.06 c 0.68,1.1 1.4,2.1 1.86,3.43 l 38.48,136.37 241.92,-42.03 36.27,-149.34 c 1.67,-5.97 5.31,-10.46 10.77,-13.56 l -23.24,-2.73 5.27,-32.87 c 0,0 26.42,-71.27 52.05,-70.22 23.7,0.98 121.9,67.82 136.3,77.67 l 1.8,1.24 v 0 c 2.5,2.36 3.1,6.13 1.9,11.29" /><path
         id="path214"
         style="fill:#f46d1b;fill-opacity:1;fill-rule:nonzero;stroke:none"
         d="m 9358.58,4731.68 c 1.17,3.51 0.28,8.23 -2.68,13.86 l -211.47,412.96 212.41,323.66 c 8.33,12.27 1.66,23.22 -20.09,27 l -135.9,23.6 c -10.08,1.75 -18.27,1.34 -24.26,-1.77 -41.76,-13.94 -129.61,-75.56 -129.61,-75.56 0,0 33.13,-35.11 42.3,-32.38 5.2,1.56 14.15,4.34 22.28,7.64 l -71.43,-115.94 -123.53,253.66 c -5.33,10.72 -16.12,16.52 -31.08,19.12 l -135.92,23.61 c -5.9,1.02 -10.6,1.06 -14.31,0.39 l -0.04,0.04 c -17.86,-1.79 -79.12,-40.55 -113.06,-62.81 l 0.84,68.69 c 0.13,9.77 -5.22,16.59 -21.56,19.41 l -500.15,86.86 c -4.66,0.81 -8.71,0.66 -11.99,-0.37 -23.42,-4.97 -71.78,-35.55 -104.46,-57.59 l 0.77,62.39 c 0.11,9.77 -6.61,16.81 -21.55,19.41 l -500.17,86.87 c -7.43,1.29 -13.18,0.49 -16.96,-2.05 -29.54,-7.66 -134.54,-77.74 -134.54,-77.74 0,0 161.39,-65.04 306.99,-122.87 l -7.06,-568.72 -18.65,2.55 c 0,0 31.67,-140.81 58.07,-145.61 22.32,-4.07 108.74,57.19 134.79,76.11 6.9,0.98 10.28,4.96 10.35,12.36 l 6.83,551.01 c 25.66,-9.78 41.96,-15.69 44.04,-15.71 12.5,-0.19 135.63,77.3 135.63,77.3 l -1.96,0.7 c 1.94,2.1 2.93,5.01 2.96,8.62 v 0.03 l 94.88,-36.01 -7.85,-633.62 c -0.13,-9.78 7.94,-17.06 20.19,-19.18 l 383.83,-66.67 -38.54,-45.42 c 0,0 7.16,-47.33 34.64,-51.11 25.72,-3.55 124.46,68.17 137.2,77.51 l 0.21,0.16 1.18,0.84 -0.07,0.09 c 2.46,2.18 3.59,5.41 3.65,9.6 l 1.19,97.77 c 0.15,10.75 -5.22,16.58 -21.53,19.41 l -339.78,59.01 2.46,197.49 138.67,-24.09 c -1.62,-41.32 -3.16,-95.39 -0.09,-97.16 5.03,-2.89 129.25,73.36 136.61,76.62 7.36,3.26 6.34,10.03 6.34,10.03 l -0.26,0.09 0.26,2.27 1.2,96.79 c 0.14,10.75 -7.94,18.03 -21.55,20.4 l -259.59,45.08 1.93,155.65 153.25,-58.18 c 0,0 39.95,-34.32 66.36,-35.29 23.64,-0.85 114.54,61.31 133.18,74.26 6.71,1.55 9.36,6.31 9.44,12.92 l 0.08,7.05 12.12,-3.51 106.61,-39.6 36.47,13.31 153.97,-301.37 -219.42,-338.12 c -8.32,-12.29 -1.64,-23.23 20.11,-27.01 l 68.28,-11.85 c -20.61,-21.48 -49.94,-52.03 -51.2,-52.96 -1.96,-1.41 -3.39,-33.23 3.8,-36.22 7.18,-3 75.23,32.63 109.28,51.89 26.63,15.06 34.57,24.76 36.78,28.29 1.73,1.31 3.25,2.86 4.47,4.8 l 133.41,213.94 126.2,-256.55 -13.5,2.28 -4.08,-46.31 c 0,0 47.99,-78.79 73.55,-78.69 21.39,0.08 103.86,57.48 131.32,76.34 4.05,0.86 6.72,2.69 7.99,5.39 l 0.98,0.56 -0.46,0.35" /><path
         id="path216"
         style="fill:#f46d1b;fill-opacity:1;fill-rule:nonzero;stroke:none"
         d="m 10427,5016.07 1.7,134.93 c 0.3,25.42 20.9,35.56 54.9,29.66 l 65.2,-11.34 c 36.7,-6.36 54.2,-23.12 53.9,-48.54 l -1,-76.26 c -0.1,-9.77 8,-17.05 21.6,-19.42 l 22.8,-3.95 c -10.5,-27.97 -16.6,-58.94 -16.6,-58.94 0,0 3.5,-22.32 8.8,-32.9 z m 326.6,-479.1 c 18.1,18.74 27.7,44.92 28.1,78.52 l 2.8,225.84 c 0.2,18.58 -11.9,31.46 -34.9,42.32 l -101.3,41.55 c 20.6,7.51 97,47.27 115.3,59.08 20.1,12.92 22,22.93 22.1,23.16 0.5,1.49 0.9,3.11 0.9,4.98 l 1.3,103.63 c 1.1,91.9 -66.3,152.59 -194,174.77 l -152.2,26.44 c -25.9,4.51 -49.4,6.4 -70.4,5.99 l -1.4,0.1 c -8.2,0.38 -17.1,-0.47 -26.4,-2.22 -19,-2.71 -35.5,-7.91 -49.2,-15.6 -72.9,-30.61 -149.5,-89.76 -149.5,-89.76 l 9.7,-26.91 c 0,0 63.4,2.44 89.6,12.39 l -2.8,-221.51 c -0.2,-18.57 11.9,-32.42 36.3,-42.54 l 321.2,-132.2 -1.7,-130.03 c -0.3,-26.4 -19.5,-35.82 -54.8,-29.68 l -65.2,11.34 c -34,5.9 -54.3,22.16 -53.9,48.55 l 0.9,75.28 c 0.1,10.75 -6.6,16.82 -21.5,19.42 l -141.4,24.56 c -1.5,0.26 -2.9,0.41 -4.2,0.52 -2.7,0.73 -5.8,0.86 -9.7,0.07 -27.5,-5.58 -132.2,-76.8 -132.2,-76.8 l 30.2,-38.99 c 0,0 70.8,-4.83 92.8,-3.01 0.8,-89.82 69.2,-149.45 193.9,-171.1 l 86.7,-15.04 c -3.1,-19.86 -11.6,-98.42 44.7,-89.54 46.4,7.33 124.7,59.28 164.9,87.79 9.6,4.96 18,11.08 25.1,18.37 l 0.4,0.23 -0.2,0.03" /><g
         transform="scale(10)"
         id="g218"><text
           id="text222"
           style="font-variant:normal;font-weight:normal;font-size:135.91403198px;font-family:Norwester;-inkscape-font-specification:Norwester-Regular;writing-mode:lr-tb;fill:#52c3a2;fill-opacity:1;fill-rule:nonzero;stroke:none"
           transform="matrix(0.99996018,-0.17366984,-0.00892392,-0.7193663,726.148,498.697)"><tspan
             id="tspan220"
             y="0"
             x="0 61.160496 128.9816 202.10255 277.6698">TEXAS</tspan></text>
</g></g></g></svg>
